<svg xmlns="http://www.w3.org/2000/svg" viewBox="0 0 32 32" fill="none">
  <!-- Gear outer ring -->
  <circle cx="16" cy="16" r="12" stroke="#2563eb" stroke-width="2.5" fill="none"/>
  <!-- Gear teeth -->
  <rect x="14.5" y="1" width="3" height="4" rx="1" fill="#2563eb"/>
  <rect x="14.5" y="27" width="3" height="4" rx="1" fill="#2563eb"/>
  <rect x="1" y="14.5" width="4" height="3" rx="1" fill="#2563eb"/>
  <rect x="27" y="14.5" width="4" height="3" rx="1" fill="#2563eb"/>
  <!-- Diagonal teeth -->
  <rect x="5" y="4.5" width="3" height="3" rx="0.75" fill="#2563eb" transform="rotate(45 6.5 6)"/>
  <rect x="24" y="23.5" width="3" height="3" rx="0.75" fill="#2563eb" transform="rotate(45 25.5 25)"/>
  <rect x="4.5" y="23.5" width="3" height="3" rx="0.75" fill="#2563eb" transform="rotate(45 6 25)"/>
  <rect x="23.5" y="4.5" width="3" height="3" rx="0.75" fill="#2563eb" transform="rotate(45 25 6)"/>
  <!-- Wrench cross -->
  <path d="M11 11L21 21M19 11L21 13L13 21L11 19Z" stroke="#06b6d4" stroke-width="2" stroke-linecap="round" stroke-linejoin="round"/>
  <!-- Center dot -->
  <circle cx="16" cy="16" r="2" fill="#2563eb"/>
</svg>
