<svg xmlns="http://www.w3.org/2000/svg" width="1200" height="630" viewBox="0 0 1200 630" fill="none">
  <defs>
    <linearGradient id="bg" x1="94" y1="58" x2="1102" y2="570" gradientUnits="userSpaceOnUse">
      <stop stop-color="#081427"/>
      <stop offset="0.55" stop-color="#123A6B"/>
      <stop offset="1" stop-color="#0B7BA5"/>
    </linearGradient>
    <radialGradient id="glowA" cx="0" cy="0" r="1" gradientUnits="userSpaceOnUse" gradientTransform="translate(214 118) rotate(18.327) scale(348 241)">
      <stop stop-color="#06B6D4" stop-opacity="0.38"/>
      <stop offset="1" stop-color="#06B6D4" stop-opacity="0"/>
    </radialGradient>
    <radialGradient id="glowB" cx="0" cy="0" r="1" gradientUnits="userSpaceOnUse" gradientTransform="translate(936 494) rotate(155.38) scale(358 235)">
      <stop stop-color="#2563EB" stop-opacity="0.42"/>
      <stop offset="1" stop-color="#2563EB" stop-opacity="0"/>
    </radialGradient>
  </defs>

  <rect width="1200" height="630" rx="40" fill="url(#bg)"/>
  <rect x="18" y="18" width="1164" height="594" rx="28" stroke="rgba(191,219,254,0.28)" stroke-width="2"/>
  <ellipse cx="214" cy="118" rx="348" ry="241" fill="url(#glowA)"/>
  <ellipse cx="936" cy="494" rx="358" ry="235" fill="url(#glowB)"/>

  <g transform="translate(88 118)">
    <rect x="0" y="0" width="168" height="168" rx="42" fill="rgba(10,20,36,0.68)" stroke="rgba(191,219,254,0.28)" stroke-width="2"/>
    <circle cx="84" cy="84" r="52" stroke="#2563EB" stroke-width="10"/>
    <rect x="78" y="10" width="12" height="24" rx="4" fill="#2563EB"/>
    <rect x="78" y="134" width="12" height="24" rx="4" fill="#2563EB"/>
    <rect x="10" y="78" width="24" height="12" rx="4" fill="#2563EB"/>
    <rect x="134" y="78" width="24" height="12" rx="4" fill="#2563EB"/>
    <rect x="31" y="30" width="12" height="12" rx="4" transform="rotate(45 31 30)" fill="#2563EB"/>
    <rect x="127" y="126" width="12" height="12" rx="4" transform="rotate(45 127 126)" fill="#2563EB"/>
    <rect x="31" y="126" width="12" height="12" rx="4" transform="rotate(45 31 126)" fill="#2563EB"/>
    <rect x="127" y="30" width="12" height="12" rx="4" transform="rotate(45 127 30)" fill="#2563EB"/>
    <path d="M58 56L110 108M98 56L110 68L68 110L56 98Z" stroke="#06B6D4" stroke-width="9" stroke-linecap="round" stroke-linejoin="round"/>
    <circle cx="84" cy="84" r="10" fill="#2563EB"/>
  </g>

  <g transform="translate(308 148)">
    <text x="0" y="0" fill="#DBEAFE" font-family="Inter, Arial, sans-serif" font-size="30" font-weight="700" letter-spacing="3.6">
      REPAIROPS DOCUMENTATION
    </text>
    <text x="0" y="96" fill="#FFFFFF" font-family="Inter, Arial, sans-serif" font-size="76" font-weight="800" letter-spacing="-2">
      Build, run, and scale
    </text>
    <text x="0" y="176" fill="#FFFFFF" font-family="Inter, Arial, sans-serif" font-size="76" font-weight="800" letter-spacing="-2">
      your repair workflow.
    </text>
    <text x="0" y="254" fill="#C7D2FE" font-family="Inter, Arial, sans-serif" font-size="30" font-weight="500">
      Operational guides, API docs, billing reference, AI Gateway details,
    </text>
    <text x="0" y="296" fill="#C7D2FE" font-family="Inter, Arial, sans-serif" font-size="30" font-weight="500">
      and the full RepairOps state machine in one place.
    </text>
  </g>

  <g transform="translate(310 474)">
    <rect width="188" height="48" rx="24" fill="rgba(37,99,235,0.22)" stroke="rgba(147,197,253,0.35)"/>
    <text x="94" y="31" text-anchor="middle" fill="#DBEAFE" font-family="JetBrains Mono, monospace" font-size="22" font-weight="700">
      docs.repairops.app
    </text>
  </g>
</svg>
